<?xml version="1.0" standalone="no"?>
<!DOCTYPE svg PUBLIC "-//W3C//DTD SVG 20010904//EN"
 "http://www.w3.org/TR/2001/REC-SVG-20010904/DTD/svg10.dtd">
<svg version="1.0" xmlns="http://www.w3.org/2000/svg"
 width="80.000000pt" height="134.000000pt" viewBox="0 0 80.000000 134.000000"
 preserveAspectRatio="xMidYMid meet">
<metadata>
Created by potrace 1.16, written by Peter Selinger 2001-2019
</metadata>
<g transform="translate(0.000000,134.000000) scale(0.100000,-0.100000)"
fill="#000000" stroke="none">
<path d="M0 688 l1 -653 45 50 c60 66 141 188 155 233 6 21 13 93 15 162 l5
125 -25 -30 c-14 -16 -28 -26 -32 -23 -7 7 53 88 64 88 15 -1 82 -69 74 -74
-5 -3 -17 3 -27 14 -10 11 -21 20 -25 20 -4 0 -10 -55 -12 -122 -3 -74 -11
-140 -20 -166 -26 -70 -79 -150 -150 -226 -38 -39 -68 -74 -68 -78 0 -5 180
-8 400 -8 l400 0 0 670 0 670 -400 0 -400 0 0 -652z"/>
</g>
</svg>
