<?xml version="1.0" standalone="no"?>
<!DOCTYPE svg PUBLIC "-//W3C//DTD SVG 20010904//EN"
 "http://www.w3.org/TR/2001/REC-SVG-20010904/DTD/svg10.dtd">
<svg version="1.0" xmlns="http://www.w3.org/2000/svg"
 width="512.000000pt" height="512.000000pt" viewBox="0 0 512.000000 512.000000"
 preserveAspectRatio="xMidYMid meet">

<g transform="translate(0.000000,512.000000) scale(0.100000,-0.100000)"
fill="#000000" stroke="none">
<path d="M1115 4829 c-52 -25 -1058 -1028 -1088 -1084 -33 -62 -31 -165 6
-227 34 -59 71 -87 178 -137 139 -65 230 -85 399 -85 160 0 224 11 358 65 147
58 197 111 155 167 -30 40 -69 40 -155 -3 -198 -97 -420 -110 -623 -38 -96 34
-169 78 -183 108 -30 65 -44 47 501 592 500 501 513 513 551 513 31 0 45 -7
71 -34 36 -39 87 -158 111 -261 23 -99 15 -293 -16 -390 -23 -71 -72 -176
-109 -230 -30 -43 -27 -89 5 -114 15 -12 36 -21 47 -21 54 0 165 186 209 350
19 72 23 110 23 245 0 185 -15 254 -89 410 -46 99 -89 148 -151 176 -55 25
-148 24 -200 -2z"/>
<path d="M1787 4260 l-25 -20 -5 -398 c-4 -416 -5 -424 -54 -532 -23 -53 -46
-73 -626 -540 -331 -267 -641 -523 -690 -570 -137 -130 -218 -264 -274 -450
-37 -121 -44 -343 -15 -480 43 -206 130 -370 276 -516 138 -137 302 -229 492
-276 106 -26 311 -31 414 -10 l66 13 53 -35 c169 -114 383 -176 606 -176 223
0 431 60 605 175 l54 37 66 -14 c37 -7 122 -12 200 -12 112 1 152 6 234 28
286 77 510 252 651 508 l36 67 47 -20 c109 -47 231 -71 388 -76 238 -9 397 23
592 118 119 57 173 102 210 173 22 43 27 64 27 131 0 108 -25 152 -170 294
-123 122 -145 132 -190 86 -46 -45 -36 -66 89 -194 125 -128 140 -156 117
-230 -14 -49 -40 -72 -136 -120 -160 -79 -296 -111 -478 -111 -346 0 -633 138
-848 407 -203 255 -277 605 -195 925 25 97 86 242 126 298 42 58 125 79 187
46 15 -8 226 -213 468 -455 400 -401 443 -441 472 -441 43 0 73 30 73 73 0 29
-41 73 -457 489 -508 507 -498 499 -624 499 -89 0 -160 -31 -218 -97 -39 -45
-123 -202 -136 -257 -4 -15 -11 -27 -15 -25 -4 2 -196 156 -428 343 -528 427
-492 371 -499 790 -2 143 -6 270 -8 282 -6 26 -381 293 -412 293 -11 0 -32 -9
-46 -20z m227 -275 l85 -60 1 -200 c1 -229 10 -318 42 -409 13 -36 115 -255
228 -487 180 -371 209 -423 234 -434 51 -22 106 14 106 69 0 8 -34 83 -76 167
-105 212 -146 303 -131 292 6 -5 153 -123 325 -262 l312 -252 -7 -57 c-14
-103 -8 -321 11 -412 34 -163 94 -309 184 -443 l45 -68 -6 -102 c-8 -133 -36
-239 -96 -362 -57 -118 -145 -233 -238 -310 -63 -52 -70 -55 -122 -55 -31 0
-66 3 -78 6 -22 6 -21 8 18 52 192 219 293 540 261 831 -7 61 -24 150 -38 198
-31 107 -206 479 -240 511 -42 37 -92 26 -114 -28 -12 -28 -8 -40 78 -218 108
-223 124 -262 148 -367 27 -116 25 -310 -4 -429 -76 -305 -299 -561 -591 -675
l-49 -20 43 82 c116 218 180 495 192 825 5 157 4 174 -12 192 -25 27 -86 27
-110 0 -16 -17 -20 -46 -26 -185 -15 -309 -82 -601 -179 -770 -32 -56 -106
-145 -121 -145 -5 0 -9 417 -9 1038 0 1031 0 1038 -20 1060 -14 14 -33 22 -55
22 -22 0 -41 -8 -55 -22 -20 -22 -20 -29 -20 -1067 l0 -1045 -41 39 c-80 79
-148 218 -199 410 -41 153 -59 276 -70 476 -10 194 -16 209 -80 209 -65 0 -75
-22 -72 -158 8 -337 77 -652 192 -869 l48 -92 -52 20 c-349 137 -591 471 -612
849 -7 116 10 240 47 354 12 36 188 406 391 823 203 417 378 783 388 815 30
86 40 209 40 481 0 141 4 247 9 245 5 -1 47 -30 95 -63z m-558 -1187 c-35 -73
-156 -322 -269 -554 -280 -574 -293 -614 -291 -874 1 -132 5 -169 27 -251 47
-177 133 -346 231 -456 44 -48 45 -51 23 -57 -12 -3 -47 -6 -78 -6 -54 0 -59
2 -125 58 -152 127 -260 304 -311 508 -24 95 -24 333 0 427 22 89 68 199 118
281 47 79 49 118 7 149 -31 23 -67 18 -96 -13 -68 -73 -159 -293 -186 -449
-48 -283 24 -596 191 -823 l43 -58 -58 29 c-82 41 -195 133 -259 210 -69 83
-146 240 -173 351 -27 116 -27 294 0 407 37 155 119 299 232 409 51 51 1024
844 1034 844 2 0 -25 -60 -60 -132z m2113 -1566 c25 -21 67 -53 94 -71 26 -17
47 -34 47 -38 0 -3 -16 -35 -35 -72 -72 -136 -216 -277 -353 -345 l-52 -27 46
63 c88 120 174 333 190 474 4 30 9 54 11 54 3 0 26 -17 52 -38z"/>
</g>
</svg>
