<?xml version="1.0" standalone="no"?>
<!DOCTYPE svg PUBLIC "-//W3C//DTD SVG 20010904//EN"
 "http://www.w3.org/TR/2001/REC-SVG-20010904/DTD/svg10.dtd">
<svg version="1.0" xmlns="http://www.w3.org/2000/svg"
 width="512.000000pt" height="512.000000pt" viewBox="0 0 512.000000 512.000000"
 preserveAspectRatio="xMidYMid meet">

<g transform="translate(0.000000,512.000000) scale(0.100000,-0.100000)"
fill="#000000" stroke="none">
<path d="M2764 4788 c-28 -13 -28 -13 -151 -358 -145 -408 -205 -529 -347
-707 -118 -147 -241 -249 -488 -408 -314 -202 -598 -512 -779 -852 -24 -46
-47 -83 -50 -83 -5 0 -126 147 -189 231 -55 73 -119 109 -195 109 -47 0 -132
-47 -161 -89 -27 -40 -218 -607 -258 -766 -58 -236 -79 -549 -47 -710 74 -368
341 -671 691 -783 120 -38 181 -47 330 -46 120 1 161 6 241 27 193 51 360 142
488 267 l64 63 96 -18 c124 -22 367 -30 503 -16 58 6 164 23 235 38 113 25
148 28 298 27 148 0 185 -4 283 -27 219 -52 389 -58 564 -22 256 53 497 195
649 383 30 36 101 115 157 176 162 173 244 310 297 491 109 378 4 785 -275
1063 -43 43 -125 111 -184 151 -266 181 -492 400 -668 646 -182 256 -329 598
-398 926 -37 174 -44 194 -78 208 -22 9 -581 93 -601 90 -3 0 -16 -5 -27 -11z
m110 -245 c-31 -489 -122 -894 -304 -1363 -182 -470 -244 -780 -244 -1235 0
-375 48 -678 162 -1016 l40 -117 -30 -6 c-77 -15 -467 0 -486 19 -2 2 8 35 22
74 56 156 57 324 2 482 -62 178 -166 291 -396 428 -85 51 -165 101 -178 111
l-23 19 25 104 c83 346 271 615 567 810 200 131 289 211 393 350 55 73 131
196 124 202 -8 7 -128 65 -136 65 -4 0 -17 -19 -29 -42 -33 -69 -134 -198
-214 -273 -41 -39 -133 -110 -205 -157 -188 -125 -307 -237 -417 -391 -102
-142 -186 -320 -223 -472 -9 -38 -20 -74 -25 -79 -8 -9 -47 21 -173 136 l-59
54 53 104 c168 335 428 626 737 827 203 132 278 189 381 288 241 231 345 410
512 880 51 143 95 266 97 273 3 6 11 12 19 12 11 0 13 -16 8 -87z m246 -103
c0 -274 29 -468 102 -679 94 -274 215 -463 459 -717 94 -99 200 -215 236 -259
249 -308 434 -702 513 -1092 32 -158 58 -420 47 -466 -11 -40 -180 -207 -269
-265 -88 -57 -195 -104 -306 -134 -106 -29 -367 -30 -487 -2 -95 23 -90 3 -52
219 104 590 98 1223 -17 1830 -9 44 -45 211 -82 371 l-67 291 -41 -9 c-22 -6
-57 -14 -77 -19 l-36 -9 33 -142 c169 -723 198 -935 199 -1448 0 -329 -7 -445
-46 -710 -17 -123 -44 -272 -55 -310 -3 -12 -30 -15 -156 -16 -102 -1 -178 -7
-228 -17 -41 -10 -82 -17 -91 -17 -31 0 -137 358 -178 605 -65 387 -51 814 40
1195 38 160 74 273 159 490 160 413 252 785 294 1198 9 84 16 178 16 210 0 32
2 61 4 63 3 3 23 3 45 1 l41 -4 0 -158z m199 10 c148 -677 543 -1259 1113
-1641 215 -144 344 -314 414 -545 25 -81 28 -103 28 -249 0 -146 -3 -168 -28
-249 -33 -110 -100 -241 -162 -319 -26 -32 -48 -57 -49 -55 -2 2 -8 48 -15
103 -48 420 -202 840 -434 1188 -106 159 -189 259 -366 442 -213 219 -288 322
-384 525 -108 228 -147 408 -153 710 -3 130 -1 211 4 205 5 -5 20 -57 32 -115z
m-2619 -2020 c230 -300 510 -547 860 -759 165 -99 179 -109 162 -119 -171 -98
-193 -113 -275 -196 l-88 -88 -47 17 c-247 93 -499 313 -635 556 -81 147 -128
303 -152 509 -16 135 -14 162 13 193 34 38 61 19 162 -113z m-270 -405 c99
-310 291 -567 558 -747 70 -47 265 -148 287 -148 6 0 10 -36 10 -87 1 -106 21
-158 91 -233 48 -52 111 -87 223 -124 l63 -22 -39 -26 c-238 -157 -538 -200
-795 -112 -302 103 -521 360 -577 678 -24 130 -9 366 34 560 25 111 103 371
110 364 2 -2 18 -48 35 -103z m1455 -688 c61 -164 36 -377 -60 -503 l-24 -32
-68 13 c-81 16 -169 47 -215 78 -41 28 -78 99 -78 152 0 69 85 187 193 270 65
48 200 115 213 104 7 -5 24 -42 39 -82z"/>
</g>
</svg>
