<?xml version="1.0" standalone="no"?>
<!DOCTYPE svg PUBLIC "-//W3C//DTD SVG 20010904//EN"
 "http://www.w3.org/TR/2001/REC-SVG-20010904/DTD/svg10.dtd">
<svg version="1.0" xmlns="http://www.w3.org/2000/svg"
 width="755.000000pt" height="330.000000pt" viewBox="0 0 755.000000 330.000000"
 preserveAspectRatio="xMidYMid meet">

<g transform="translate(0.000000,330.000000) scale(0.100000,-0.100000)"
fill="#000000" stroke="none">
<path d="M4013 3285 c-17 -7 -38 -24 -47 -37 -8 -13 -46 -40 -84 -61 -89 -47
-248 -73 -387 -62 -163 13 -214 5 -295 -50 -29 -19 -59 -35 -67 -35 -8 0 -11
-4 -8 -10 3 -5 1 -10 -4 -10 -6 0 -11 -7 -11 -15 0 -9 -19 -42 -41 -73 -102
-140 -166 -182 -279 -182 -89 0 -143 24 -219 98 -66 63 -111 91 -111 68 0 -8
19 -28 43 -45 23 -16 57 -46 76 -65 48 -51 114 -80 193 -84 129 -8 211 42 318
194 30 43 68 91 84 107 33 32 120 79 129 70 4 -3 20 0 37 7 24 10 49 10 121 1
117 -15 302 6 397 46 l64 26 25 -26 26 -26 -27 -62 c-15 -34 -25 -63 -23 -65
2 -3 21 36 42 85 32 75 44 91 72 105 44 21 68 20 139 -5 100 -34 133 -37 255
-20 84 12 135 14 194 8 79 -9 82 -8 210 37 71 25 147 46 168 46 81 0 139 -49
173 -147 10 -29 24 -53 32 -53 36 0 -45 161 -100 198 -67 44 -116 41 -268 -13
-132 -46 -133 -47 -224 -40 -65 5 -121 2 -197 -10 l-105 -16 -96 30 c-95 31
-128 53 -128 84 0 21 -32 22 -77 2z m12 -35 c-3 -5 -14 -10 -23 -10 -15 0 -15
2 -2 10 20 13 33 13 25 0z m-38 -75 c3 -9 3 -18 0 -21 -6 -7 -47 18 -47 28 0
15 41 8 47 -7z"/>
<path d="M5172 3015 c0 -16 2 -22 5 -12 2 9 2 23 0 30 -3 6 -5 -1 -5 -18z"/>
<path d="M2358 2970 c-1 -5 -81 -19 -176 -30 -201 -23 -247 -41 -316 -124 -79
-95 -115 -132 -138 -143 -13 -7 -67 -32 -121 -58 -108 -51 -158 -91 -250 -203
-48 -60 -56 -73 -38 -70 12 2 49 36 84 78 82 98 139 139 251 184 97 38 151 82
228 186 54 71 106 97 228 114 58 8 137 17 177 21 64 6 72 5 76 -12 3 -10 5 1
6 25 1 40 -3 54 -11 32z"/>
<path d="M3898 2932 c-22 -60 -15 -67 7 -7 10 25 16 47 14 50 -3 2 -12 -17
-21 -43z"/>
<path d="M5230 2939 c0 -26 44 -178 82 -286 28 -79 38 -118 30 -121 -20 -6
-13 -27 19 -58 17 -16 41 -50 54 -75 13 -25 51 -71 84 -102 48 -44 76 -61 127
-77 79 -24 108 -25 164 -5 23 8 63 15 89 15 59 1 103 17 170 63 52 36 71 39
71 12 0 -8 -17 -19 -38 -24 -52 -14 -93 -42 -371 -250 -135 -101 -256 -187
-270 -193 -15 -5 -34 -19 -43 -31 l-17 -22 -37 20 c-27 14 -48 40 -76 90 -45
80 -54 90 -88 100 -21 6 -19 3 9 -16 23 -16 50 -52 77 -103 28 -53 52 -85 71
-94 38 -20 37 -18 23 -51 -15 -36 -40 -46 -164 -61 -72 -9 -107 -10 -140 -1
-59 15 -76 14 -76 -3 0 -25 112 -39 215 -27 141 17 128 22 194 -78 53 -81 60
-98 76 -185 12 -70 21 -96 32 -96 9 0 13 7 9 18 -2 9 -10 51 -16 92 -13 80
-46 180 -59 180 -5 0 -21 24 -37 54 l-28 54 18 40 c25 56 44 72 365 307 295
216 329 235 421 235 40 0 48 -4 58 -25 8 -16 20 -25 35 -25 28 0 67 26 67 45
0 29 47 64 115 85 39 13 75 26 80 30 6 4 36 17 68 30 40 15 57 28 57 40 0 16
-10 14 -82 -17 -46 -19 -132 -53 -192 -74 l-108 -39 -55 25 c-74 34 -101 32
-164 -11 -75 -51 -110 -64 -170 -64 -28 0 -73 -8 -100 -17 -84 -30 -199 6
-277 87 -54 55 -95 133 -87 161 10 31 -2 67 -22 65 -13 -1 -27 27 -59 119 -23
66 -50 155 -60 198 -11 50 -22 77 -30 77 -8 0 -14 -5 -14 -11z m941 -610 c11
-5 17 -14 14 -20 -10 -16 -34 -10 -45 11 -12 23 -1 27 31 9z m128 -85 c-17
-21 -54 -14 -54 11 0 14 9 21 30 25 34 6 45 -11 24 -36z"/>
<path d="M0 2908 c0 -7 141 -119 314 -248 224 -168 321 -247 339 -276 15 -22
52 -68 84 -101 63 -66 109 -87 173 -77 32 5 37 2 59 -31 29 -43 62 -53 107
-31 43 20 44 20 44 -2 0 -10 -25 -42 -56 -71 -80 -76 -104 -134 -113 -274 -5
-67 -14 -128 -24 -151 -23 -53 -88 -128 -131 -151 -21 -12 -36 -27 -36 -38 0
-17 3 -17 41 5 53 30 126 111 152 168 14 32 22 80 27 161 9 148 26 186 125
276 103 93 151 123 194 123 20 0 104 -22 186 -50 82 -27 151 -50 152 -50 2 0
3 6 3 14 0 9 -55 32 -156 67 -86 29 -158 58 -161 65 -2 6 -13 10 -23 7 -10 -3
-28 1 -40 7 -16 9 -25 9 -33 1 -6 -6 -18 -11 -27 -11 -8 0 -44 -18 -80 -40
-81 -50 -104 -51 -131 -6 -24 41 -39 48 -88 40 -27 -4 -49 0 -82 16 -41 20
-56 35 -145 153 -23 30 -117 108 -258 215 -445 335 -416 316 -416 290z m1173
-730 c-13 -12 -26 -18 -30 -14 -4 4 1 14 11 22 31 22 43 17 19 -8z"/>
<path d="M3187 2899 c7 -7 15 -10 18 -7 3 3 -2 9 -12 12 -14 6 -15 5 -6 -5z"/>
<path d="M3871 2854 c0 -11 3 -14 6 -6 3 7 2 16 -1 19 -3 4 -6 -2 -5 -13z"/>
<path d="M3862 2810 c0 -14 2 -19 5 -12 2 6 2 18 0 25 -3 6 -5 1 -5 -13z"/>
<path d="M3840 2740 c-1 -3 -3 -18 -6 -35 -3 -28 -3 -29 7 -6 5 13 8 29 5 35
-2 6 -5 9 -6 6z"/>
<path d="M4955 2690 c28 -12 37 -12 30 0 -3 6 -16 10 -28 9 -21 0 -21 -1 -2
-9z"/>
<path d="M4868 2683 c12 -2 32 -2 45 0 12 2 2 4 -23 4 -25 0 -35 -2 -22 -4z"/>
<path d="M7119 2647 c-20 -7 -111 -43 -202 -82 -119 -50 -167 -75 -167 -87 0
-13 33 -2 163 53 249 106 239 104 419 91 195 -15 218 -15 218 1 0 10 -42 16
-167 25 -197 14 -216 14 -264 -1z"/>
<path d="M3268 2643 c7 -3 16 -2 19 1 4 3 -2 6 -13 5 -11 0 -14 -3 -6 -6z"/>
<path d="M3802 2570 c0 -19 2 -27 5 -17 2 9 2 25 0 35 -3 9 -5 1 -5 -18z"/>
<path d="M4963 2470 c0 -25 2 -35 4 -22 2 12 2 32 0 45 -2 12 -4 2 -4 -23z"/>
<path d="M3790 2455 l-5 -40 -63 -7 c-81 -9 -102 -16 -102 -35 0 -11 5 -13 18
-8 62 27 290 4 318 -32 8 -9 13 -10 16 -3 2 7 38 3 108 -14 58 -13 175 -32
260 -41 150 -16 250 -31 257 -39 2 -2 -6 -42 -19 -90 -16 -59 -28 -86 -38 -87
-10 0 -11 -2 -2 -6 17 -7 15 -17 -10 -71 -15 -32 -23 -72 -26 -124 -3 -47 -8
-78 -15 -78 -57 0 211 -70 376 -98 19 -3 27 0 27 11 0 11 -20 19 -71 28 -42 7
-73 18 -76 27 -4 8 -8 10 -12 3 -4 -7 -40 -3 -106 12 l-100 22 3 65 c2 40 14
94 31 140 30 81 71 221 71 244 0 8 6 16 13 19 14 5 -65 23 -138 32 -28 3 -81
10 -120 15 -38 5 -99 12 -135 15 -36 3 -151 27 -257 52 l-192 45 -3 42 -4 41
-4 -40z"/>
<path d="M4970 2371 c0 -5 7 -11 15 -15 8 -3 15 -1 15 3 0 5 -7 11 -15 15 -8
3 -15 1 -15 -3z"/>
<path d="M3440 2354 c-276 -58 -228 -37 -640 -283 l-375 -224 -95 33 c-52 18
-115 42 -140 53 -25 11 -48 20 -51 19 -4 -1 -94 28 -200 63 -126 42 -197 61
-203 55 -5 -5 -8 -12 -5 -14 2 -2 74 -27 161 -54 86 -28 173 -59 195 -68 21
-9 45 -18 54 -19 38 -4 239 -81 236 -90 -3 -9 -106 -74 -347 -216 -58 -34
-109 -68 -115 -74 -5 -7 -66 -45 -135 -85 -125 -72 -164 -98 -125 -84 11 4 25
11 31 15 17 13 236 139 242 139 3 0 51 27 108 60 56 33 107 60 112 60 6 0 12
4 14 8 2 5 56 40 122 79 153 92 152 92 188 -53 14 -60 27 -102 27 -94 0 8 -8
52 -19 98 -25 104 -25 119 1 127 16 5 18 9 8 21 -6 8 -10 16 -8 18 2 2 74 45
159 95 85 51 162 96 170 101 59 37 349 210 367 219 13 6 87 25 165 42 177 37
178 37 178 55 0 8 -3 14 -7 13 -5 -1 -37 -7 -73 -15z m-990 -544 c0 -5 -4 -10
-10 -10 -5 0 -10 5 -10 10 0 6 5 10 10 10 6 0 10 -4 10 -10z"/>
<path d="M2708 2323 c-10 -2 -18 -9 -18 -14 0 -6 7 -6 18 -1 9 5 24 12 32 15
13 5 13 5 0 5 -8 0 -23 -2 -32 -5z"/>
<path d="M3583 2235 c0 -33 2 -45 4 -27 2 18 2 45 0 60 -2 15 -4 0 -4 -33z"/>
<path d="M3810 2275 c0 -6 18 -9 48 -6 51 4 48 7 -10 13 -23 2 -38 0 -38 -7z"/>
<path d="M3934 2256 c-3 -7 -4 -33 -2 -57 3 -43 4 -42 8 14 5 58 4 68 -6 43z"/>
<path d="M2248 2243 c6 -2 18 -2 25 0 6 3 1 5 -13 5 -14 0 -19 -2 -12 -5z"/>
<path d="M3811 2234 c0 -11 3 -14 6 -6 3 7 2 16 -1 19 -3 4 -6 -2 -5 -13z"/>
<path d="M4732 2228 c17 -6 34 -6 44 0 12 7 5 9 -27 9 -40 0 -41 -1 -17 -9z"/>
<path d="M5140 2198 c24 -27 45 -48 47 -48 8 0 0 9 -44 50 l-48 45 45 -47z"/>
<path d="M3821 2124 c0 -11 3 -14 6 -6 3 7 2 16 -1 19 -3 4 -6 -2 -5 -13z"/>
<path d="M4796 2115 c-3 -13 -9 -51 -11 -82 -4 -49 -4 -54 6 -33 11 24 24 140
15 140 -2 0 -7 -11 -10 -25z"/>
<path d="M5215 2120 c10 -11 20 -20 23 -20 3 0 -3 9 -13 20 -10 11 -20 20 -23
20 -3 0 3 -9 13 -20z"/>
<path d="M3592 2078 c-2 -35 -6 -48 -19 -51 -10 -3 -3 -5 16 -6 26 -1 31 2 23
12 -6 7 -12 30 -15 52 l-4 40 -1 -47z"/>
<path d="M3939 2087 c-3 -21 -3 -39 0 -41 3 -1 22 1 41 5 l35 6 -32 2 c-28 1
-32 5 -35 34 l-3 32 -6 -38z"/>
<path d="M1691 2094 c0 -11 3 -14 6 -6 3 7 2 16 -1 19 -3 4 -6 -2 -5 -13z"/>
<path d="M4268 2073 c23 -2 59 -2 80 0 20 2 1 4 -43 4 -44 0 -61 -2 -37 -4z"/>
<path d="M4078 2063 c6 -2 18 -2 25 0 6 3 1 5 -13 5 -14 0 -19 -2 -12 -5z"/>
<path d="M4428 2063 c7 -3 16 -2 19 1 4 3 -2 6 -13 5 -11 0 -14 -3 -6 -6z"/>
<path d="M3823 2043 c9 -2 23 -2 30 0 6 3 -1 5 -18 5 -16 0 -22 -2 -12 -5z"/>
<path d="M4730 2040 c0 -5 10 -10 23 -10 18 0 19 2 7 10 -19 13 -30 13 -30 0z"/>
<path d="M3678 2033 c12 -2 32 -2 45 0 12 2 2 4 -23 4 -25 0 -35 -2 -22 -4z"/>
<path d="M4875 2011 c20 -9 283 -15 274 -7 -3 3 -70 7 -149 10 -92 4 -138 2
-125 -3z"/>
<path d="M2802 1990 c0 -14 2 -19 5 -12 2 6 2 18 0 25 -3 6 -5 1 -5 -13z"/>
<path d="M3953 1965 c0 -22 2 -30 4 -17 2 12 2 30 0 40 -3 9 -5 -1 -4 -23z"/>
<path d="M4772 1950 c0 -14 2 -19 5 -12 2 6 2 18 0 25 -3 6 -5 1 -5 -13z"/>
<path d="M4762 1900 c0 -14 2 -19 5 -12 2 6 2 18 0 25 -3 6 -5 1 -5 -13z"/>
<path d="M3960 1876 c0 -19 3 -37 8 -40 4 -2 6 13 4 35 -5 48 -12 51 -12 5z"/>
<path d="M2812 1865 c0 -16 2 -22 5 -12 2 9 2 23 0 30 -3 6 -5 -1 -5 -18z"/>
<path d="M4752 1850 c0 -14 2 -19 5 -12 2 6 2 18 0 25 -3 6 -5 1 -5 -13z"/>
<path d="M4112 1820 c0 -19 2 -27 5 -17 2 9 2 25 0 35 -3 9 -5 1 -5 -18z"/>
<path d="M4141 1834 c0 -11 3 -14 6 -6 3 7 2 16 -1 19 -3 4 -6 -2 -5 -13z"/>
<path d="M4741 1804 c0 -11 3 -14 6 -6 3 7 2 16 -1 19 -3 4 -6 -2 -5 -13z"/>
<path d="M3168 1793 c7 -3 16 -2 19 1 4 3 -2 6 -13 5 -11 0 -14 -3 -6 -6z"/>
<path d="M3973 1765 c0 -22 2 -30 4 -17 2 12 2 30 0 40 -3 9 -5 -1 -4 -23z"/>
<path d="M3008 1783 c12 -2 32 -2 45 0 12 2 2 4 -23 4 -25 0 -35 -2 -22 -4z"/>
<path d="M4001 1774 c0 -11 3 -14 6 -6 3 7 2 16 -1 19 -3 4 -6 -2 -5 -13z"/>
<path d="M2858 1773 c6 -2 18 -2 25 0 6 3 1 5 -13 5 -14 0 -19 -2 -12 -5z"/>
<path d="M2733 1763 c9 -2 23 -2 30 0 6 3 -1 5 -18 5 -16 0 -22 -2 -12 -5z"/>
<path d="M4152 1740 c0 -14 2 -19 5 -12 2 6 2 18 0 25 -3 6 -5 1 -5 -13z"/>
<path d="M4121 1734 c0 -11 3 -14 6 -6 3 7 2 16 -1 19 -3 4 -6 -2 -5 -13z"/>
<path d="M1679 1703 c-13 -16 -12 -17 4 -4 16 13 21 21 13 21 -2 0 -10 -8 -17
-17z"/>
<path d="M3972 1694 c-10 -11 -10 -14 0 -14 7 0 19 4 26 9 11 7 11 9 0 13 -7
3 -19 -1 -26 -8z"/>
<path d="M4113 1685 c1 -11 12 -24 25 -30 34 -15 20 -30 -24 -27 -138 9 -200
6 -229 -10 -16 -9 -50 -27 -75 -38 -25 -12 -53 -29 -63 -37 -15 -14 -25 -15
-68 -5 -97 23 -140 13 -230 -52 -29 -20 -69 -37 -105 -45 -33 -6 -70 -19 -84
-27 -16 -10 -18 -13 -5 -8 11 4 45 12 75 19 57 13 134 47 145 65 3 6 25 20 47
31 42 22 48 22 180 3 39 -5 51 -3 74 15 15 11 31 21 36 21 20 0 107 43 103 50
-3 4 1 7 8 7 6 -1 29 3 50 7 26 6 53 4 80 -4 23 -7 82 -15 132 -17 86 -3 92
-5 155 -46 36 -24 81 -52 100 -63 19 -11 37 -30 40 -44 4 -16 16 -26 37 -32
33 -9 44 -26 84 -138 20 -56 157 -279 204 -332 8 -10 13 -18 11 -18 -3 0 0
-14 6 -30 8 -24 13 -28 23 -20 8 6 33 10 57 8 34 -2 45 -8 55 -28 8 -15 13
-19 13 -9 0 8 -6 21 -12 27 -10 10 -10 15 2 22 10 7 -4 10 -47 10 -66 0 -96 7
-88 20 3 5 -19 44 -48 87 -30 43 -74 107 -98 143 -25 36 -62 113 -84 173 -34
92 -47 114 -89 155 -27 26 -46 41 -42 35 11 -19 -35 -16 -63 3 -18 13 -20 18
-10 25 10 6 7 9 -9 9 -13 0 -42 13 -65 29 -23 16 -58 32 -77 36 -19 4 -43 15
-54 24 -10 9 -20 15 -22 14 -14 -9 -36 0 -44 20 -9 19 -10 19 -7 2z m419 -239
c14 -21 8 -30 -7 -10 -8 11 -15 14 -15 7 0 -17 -20 -17 -20 0 0 16 32 18 42 3z"/>
<path d="M4763 1540 c0 -25 2 -35 4 -22 2 12 2 32 0 45 -2 12 -4 2 -4 -23z"/>
<path d="M2501 1544 c0 -11 3 -14 6 -6 3 7 2 16 -1 19 -3 4 -6 -2 -5 -13z"/>
<path d="M2516 1485 c6 -52 32 -156 33 -130 0 11 -8 54 -19 95 -11 41 -17 57
-14 35z"/>
<path d="M4602 1490 c0 -19 2 -27 5 -17 2 9 2 25 0 35 -3 9 -5 1 -5 -18z"/>
<path d="M2220 1505 c0 -5 5 -17 10 -25 5 -8 10 -10 10 -5 0 6 -5 17 -10 25
-5 8 -10 11 -10 5z"/>
<path d="M2241 1457 c-1 -4 5 -23 13 -41 10 -23 11 -37 4 -44 -7 -7 -6 -10 3
-9 20 3 20 12 -1 59 -10 24 -19 39 -19 35z"/>
<path d="M2435 1430 c-8 -13 5 -13 25 0 13 8 13 10 -2 10 -9 0 -20 -4 -23 -10z"/>
<path d="M584 1390 c-83 -44 -116 -80 -180 -196 -30 -56 -68 -113 -83 -128
-15 -14 -91 -52 -172 -84 -97 -39 -145 -64 -147 -75 -3 -15 4 -14 55 7 136 57
340 136 350 136 6 0 16 -7 23 -15 15 -18 40 -3 40 24 0 36 67 58 258 81 100
13 180 25 178 28 -7 6 -201 -16 -335 -39 -154 -26 -166 -16 -112 97 23 49 41
70 86 102 31 23 73 46 92 53 32 10 40 28 16 36 -5 2 -36 -10 -69 -27z m-186
-296 c-2 -11 -13 -20 -26 -22 -22 -3 -22 -3 -4 27 17 31 37 28 30 -5z"/>
<path d="M3128 1310 c-77 -80 -91 -90 -122 -90 -22 0 -53 -11 -83 -30 -55 -35
-73 -37 -80 -10 -6 24 -13 24 -118 5 -115 -21 -139 -20 -132 5 3 11 1 20 -4
20 -5 0 -9 7 -9 16 0 11 -5 14 -16 10 -9 -3 -21 -6 -27 -7 -7 -1 -1 -4 13 -8
16 -4 26 -15 29 -31 1 -14 7 -28 13 -31 5 -3 42 0 81 6 168 29 157 29 157 -4
0 -35 -11 -44 -60 -48 -67 -6 -790 -120 -819 -129 -8 -3 -12 -7 -9 -9 3 -3
128 15 279 39 308 51 543 86 567 86 12 0 5 -11 -20 -35 -27 -24 -38 -42 -38
-62 1 -27 1 -27 16 -8 80 106 111 139 166 174 42 27 75 41 98 41 30 0 45 11
126 95 51 52 90 95 86 95 -3 0 -45 -40 -94 -90z"/>
<path d="M1573 1329 c-29 -17 -53 -33 -53 -36 0 -5 89 44 105 58 16 16 1 9
-52 -22z"/>
<path d="M2794 1338 l-19 -23 23 19 c12 11 22 21 22 23 0 8 -8 2 -26 -19z"/>
<path d="M2552 1315 c0 -11 4 -31 8 -45 6 -20 8 -21 8 -5 0 11 -4 31 -8 45 -6
20 -8 21 -8 5z"/>
<path d="M1494 1280 c-5 -5 -43 -21 -84 -34 -41 -14 -65 -25 -53 -26 12 0 34
5 49 10 23 9 31 7 52 -12 l25 -23 -14 23 c-13 20 -12 24 16 47 17 13 28 24 25
25 -4 0 -10 -4 -16 -10z"/>
<path d="M2316 1260 c3 -14 10 -32 15 -40 7 -13 8 -13 8 0 0 8 -6 26 -15 40
l-15 25 7 -25z"/>
<path d="M1724 1246 c0 -14 7 -26 14 -26 10 0 10 5 1 23 -16 31 -17 31 -15 3z"/>
<path d="M1888 1243 c7 -3 16 -2 19 1 4 3 -2 6 -13 5 -11 0 -14 -3 -6 -6z"/>
<path d="M1813 1233 c9 -2 25 -2 35 0 9 3 1 5 -18 5 -19 0 -27 -2 -17 -5z"/>
<path d="M1170 1205 c-47 -7 -69 -13 -50 -13 19 0 76 6 125 13 50 7 72 12 50
12 -22 0 -78 -5 -125 -12z"/>
<path d="M1618 1213 c6 -2 18 -2 25 0 6 3 1 5 -13 5 -14 0 -19 -2 -12 -5z"/>
<path d="M2463 1213 c9 -2 23 -2 30 0 6 3 -1 5 -18 5 -16 0 -22 -2 -12 -5z"/>
<path d="M1518 1203 c12 -2 30 -2 40 0 9 3 -1 5 -23 4 -22 0 -30 -2 -17 -4z"/>
<path d="M2383 1203 c9 -2 23 -2 30 0 6 3 -1 5 -18 5 -16 0 -22 -2 -12 -5z"/>
<path d="M960 1180 l-45 -7 40 -1 c22 0 60 3 85 7 l45 8 -40 0 c-22 0 -60 -3
-85 -7z"/>
<path d="M5499 1175 c8 -9 31 -125 31 -154 0 -8 -13 -12 -40 -10 -29 2 -45 -2
-62 -18 -13 -12 -39 -24 -58 -26 -19 -2 11 -2 67 1 101 5 102 5 107 -19 3 -13
12 -60 21 -104 14 -76 18 -82 64 -125 64 -58 181 -150 306 -241 86 -63 204
-154 255 -197 8 -7 45 -35 82 -62 49 -37 68 -57 71 -77 3 -21 4 -18 5 12 l2
40 -278 215 c-152 118 -286 225 -298 238 -12 12 -25 22 -30 22 -19 0 -125 93
-136 118 -15 38 -40 173 -33 180 8 8 67 7 87 -2 15 -7 15 -4 5 29 -13 43 -59
85 -92 85 -25 0 -29 8 -40 72 -5 27 -12 36 -25 35 -12 -1 -16 -5 -11 -12z
m124 -143 c30 -26 21 -44 -20 -40 -31 2 -39 7 -41 27 -6 41 21 47 61 13z"/>
<path d="M5223 953 c15 -2 39 -2 55 0 15 2 2 4 -28 4 -30 0 -43 -2 -27 -4z"/>
<path d="M5113 943 c9 -2 23 -2 30 0 6 3 -1 5 -18 5 -16 0 -22 -2 -12 -5z"/>
<path d="M5857 912 c6 -4 13 -25 16 -47 4 -40 4 -40 5 8 2 39 -1 47 -15 47
-12 0 -14 -3 -6 -8z"/>
<path d="M5943 903 c15 -2 37 -2 50 0 12 2 0 4 -28 4 -27 0 -38 -2 -22 -4z"/>
<path d="M6120 856 c0 -2 8 -10 18 -17 15 -13 16 -12 3 4 -13 16 -21 21 -21
13z"/>
<path d="M4851 814 c0 -11 3 -14 6 -6 3 7 2 16 -1 19 -3 4 -6 -2 -5 -13z"/>
<path d="M1751 794 c0 -11 3 -14 6 -6 3 7 2 16 -1 19 -3 4 -6 -2 -5 -13z"/>
<path d="M6030 795 c0 -5 5 -17 10 -25 5 -8 10 -10 10 -5 0 6 -5 17 -10 25 -5
8 -10 11 -10 5z"/>
<path d="M5863 700 c0 -30 2 -43 4 -27 2 15 2 39 0 55 -2 15 -4 2 -4 -28z"/>
<path d="M1760 715 c0 -8 4 -15 10 -15 5 0 7 7 4 15 -4 8 -8 15 -10 15 -2 0
-4 -7 -4 -15z"/>
<path d="M4871 714 c0 -11 3 -14 6 -6 3 7 2 16 -1 19 -3 4 -6 -2 -5 -13z"/>
<path d="M1260 680 c0 -5 5 -10 11 -10 5 0 7 5 4 10 -3 6 -8 10 -11 10 -2 0
-4 -4 -4 -10z"/>
<path d="M4881 664 c0 -11 3 -14 6 -6 3 7 2 16 -1 19 -3 4 -6 -2 -5 -13z"/>
<path d="M5156 565 c-4 -48 -10 -93 -13 -101 -3 -8 -1 -14 5 -14 10 0 28 187
19 196 -2 2 -7 -34 -11 -81z"/>
<path d="M6255 640 c3 -5 11 -10 16 -10 6 0 7 5 4 10 -3 6 -11 10 -16 10 -6 0
-7 -4 -4 -10z"/>
<path d="M4892 620 c0 -14 2 -19 5 -12 2 6 2 18 0 25 -3 6 -5 1 -5 -13z"/>
<path d="M5940 606 c0 -9 30 -14 35 -6 4 6 -3 10 -14 10 -12 0 -21 -2 -21 -4z"/>
<path d="M4902 570 c0 -14 2 -19 5 -12 2 6 2 18 0 25 -3 6 -5 1 -5 -13z"/>
<path d="M5640 561 c0 -5 7 -12 16 -15 14 -5 15 -4 4 9 -14 17 -20 19 -20 6z"/>
<path d="M6010 566 c0 -2 8 -10 18 -17 15 -13 16 -12 3 4 -13 16 -21 21 -21
13z"/>
<path d="M6080 560 c8 -5 20 -10 25 -10 6 0 3 5 -5 10 -8 5 -19 10 -25 10 -5
0 -3 -5 5 -10z"/>
<path d="M6390 556 c0 -2 8 -10 18 -17 15 -13 16 -12 3 4 -13 16 -21 21 -21
13z"/>
<path d="M4911 514 c0 -11 3 -14 6 -6 3 7 2 16 -1 19 -3 4 -6 -2 -5 -13z"/>
<path d="M6168 513 c7 -3 16 -2 19 1 4 3 -2 6 -13 5 -11 0 -14 -3 -6 -6z"/>
<path d="M393 493 c9 -2 25 -2 35 0 9 3 1 5 -18 5 -19 0 -27 -2 -17 -5z"/>
<path d="M4919 449 c-3 -40 -2 -45 14 -41 9 2 17 -1 17 -7 0 -6 -8 -11 -17
-11 -15 0 -14 -2 3 -14 17 -13 20 -13 25 1 3 9 14 20 25 24 18 7 18 8 -2 8
-26 1 -43 20 -53 58 -7 26 -8 24 -12 -18z"/>
<path d="M5153 360 c0 -25 2 -35 4 -22 2 12 2 32 0 45 -2 12 -4 2 -4 -23z"/>
<path d="M6466 387 c3 -10 9 -15 12 -12 3 3 0 11 -7 18 -10 9 -11 8 -5 -6z"/>
<path d="M4953 305 c0 -27 2 -38 4 -22 2 15 2 37 0 50 -2 12 -4 0 -4 -28z"/>
<path d="M5940 336 c0 -2 7 -7 16 -10 8 -3 12 -2 9 4 -6 10 -25 14 -25 6z"/>
<path d="M6098 223 c7 -3 16 -2 19 1 4 3 -2 6 -13 5 -11 0 -14 -3 -6 -6z"/>
<path d="M6435 110 c-7 -11 15 -33 83 -81 68 -48 81 -31 15 21 -88 70 -91 71
-98 60z"/>
<path d="M5860 50 c-13 -8 -12 -10 3 -10 9 0 17 5 17 10 0 12 -1 12 -20 0z"/>
</g>
</svg>
