<?xml version="1.0" standalone="no"?>
<!DOCTYPE svg PUBLIC "-//W3C//DTD SVG 20010904//EN"
 "http://www.w3.org/TR/2001/REC-SVG-20010904/DTD/svg10.dtd">
<svg version="1.0" xmlns="http://www.w3.org/2000/svg"
 width="512.000000pt" height="512.000000pt" viewBox="0 0 512.000000 512.000000"
 preserveAspectRatio="xMidYMid meet">

<g transform="translate(0.000000,512.000000) scale(0.100000,-0.100000)"
fill="#000000" stroke="none">
<path d="M1858 5109 c-10 -5 -22 -18 -28 -29 -14 -26 -78 -594 -93 -830 l-13
-195 -31 61 c-85 165 -241 365 -374 482 -126 110 -340 242 -392 242 -10 0 -32
-14 -49 -30 -44 -45 -34 -77 50 -164 376 -390 624 -971 693 -1620 l11 -108
-48 -50 c-62 -63 -185 -157 -268 -203 -35 -20 -119 -58 -186 -85 -218 -88
-344 -166 -484 -300 -365 -349 -499 -887 -341 -1367 163 -492 594 -843 1109
-904 58 -7 257 -9 546 -6 491 5 510 6 690 64 47 15 130 51 186 79 l100 51 80
-43 c97 -53 219 -99 339 -127 124 -28 381 -30 505 -4 602 129 1020 637 1020
1239 0 307 -102 586 -300 823 -116 139 -313 281 -483 350 l-82 33 -6 134 c-7
146 -15 189 -58 306 -112 307 -381 537 -711 608 -96 20 -296 18 -400 -5 -259
-58 -483 -221 -624 -456 -33 -56 -36 -58 -36 -30 0 17 9 91 20 165 83 563 327
1097 663 1446 70 74 81 90 81 121 0 40 -39 83 -75 83 -49 0 -263 -134 -391
-244 -130 -113 -263 -283 -360 -461 l-43 -80 -12 190 c-11 158 -57 615 -80
785 -10 73 -70 111 -125 79z m-398 -900 c183 -265 318 -663 360 -1059 6 -58
13 -122 15 -142 5 -37 4 -38 -25 -38 -34 0 -33 -3 -50 150 -24 220 -87 489
-166 708 -43 121 -156 364 -224 482 l-31 55 30 -35 c17 -19 58 -74 91 -121z
m459 -104 c6 -132 11 -284 11 -337 0 -91 -16 -188 -30 -188 -4 0 -13 25 -20
55 -10 42 -12 109 -6 282 8 301 17 446 27 436 4 -4 12 -116 18 -248z m516 213
c-47 -77 -154 -296 -194 -396 -99 -248 -179 -571 -206 -832 -11 -99 -16 -120
-29 -120 -51 0 -26 302 50 589 76 292 183 521 336 724 65 85 83 100 43 35z
m811 -958 c221 -56 414 -207 522 -410 60 -112 83 -197 89 -328 l6 -114 -59 7
c-98 11 -94 8 -94 84 0 88 -21 167 -72 271 -78 161 -256 304 -429 345 -128 30
-339 12 -417 -35 -54 -33 -53 -106 3 -132 20 -9 39 -7 97 11 96 28 221 29 310
1 206 -63 358 -263 358 -471 l0 -57 -72 -9 -73 -8 -5 75 c-10 137 -81 244
-198 302 -62 31 -74 33 -167 33 -90 0 -105 -3 -153 -28 -29 -15 -70 -43 -91
-62 -50 -45 -100 -141 -108 -205 -6 -49 -7 -51 -32 -45 -50 13 -121 48 -121
59 0 29 34 125 61 173 16 29 29 62 29 74 0 54 -52 89 -101 69 -29 -12 -85
-107 -109 -185 -7 -22 -16 -43 -19 -48 -4 -4 -35 14 -68 39 l-61 47 14 41 c24
66 82 166 138 235 99 123 267 229 426 271 106 27 289 27 396 0z m-95 -603 c64
-34 102 -93 107 -167 5 -70 -10 -116 -42 -126 -11 -3 -58 -22 -103 -41 l-83
-35 -67 44 c-38 25 -81 52 -97 62 -27 17 -28 20 -24 87 3 56 9 76 33 110 41
58 102 89 175 89 40 0 70 -7 101 -23z m-1232 -123 c7 -26 32 -91 57 -146 72
-157 114 -348 146 -673 20 -198 17 -839 -5 -1030 -31 -277 -73 -476 -122 -579
l-26 -56 -69 0 -69 0 -25 55 c-84 176 -134 525 -143 995 -12 609 43 1044 165
1297 16 35 38 92 48 127 10 35 21 63 25 60 4 -2 12 -25 18 -50z m-194 4 c-4
-13 -24 -59 -45 -104 -113 -239 -170 -646 -170 -1209 0 -463 45 -861 125
-1095 14 -40 24 -75 22 -76 -6 -6 -104 24 -143 44 -197 101 -375 390 -444 724
-10 51 -24 131 -29 177 -13 99 -28 121 -81 121 -36 0 -61 -17 -72 -50 -9 -24
20 -224 47 -331 65 -254 162 -455 291 -598 25 -28 41 -51 36 -51 -6 0 -44 12
-84 26 -383 138 -655 438 -759 839 -21 80 -24 111 -23 275 0 166 3 195 26 280
87 321 292 588 570 744 52 29 280 126 296 126 3 0 -20 -26 -50 -57 -172 -182
-298 -484 -341 -818 -8 -60 -12 -116 -9 -125 12 -34 36 -50 73 -50 53 0 65 23
84 159 21 149 56 282 109 413 82 202 188 341 340 443 74 49 216 179 224 205 7
21 13 9 7 -12z m565 -182 c121 -80 206 -169 277 -292 62 -106 62 -101 -5 -204
-267 -404 -278 -935 -28 -1347 l54 -88 -21 -35 c-74 -125 -187 -244 -275 -289
-39 -20 -143 -53 -149 -48 -1 2 8 37 22 78 86 252 132 703 122 1214 -9 487
-61 850 -149 1045 -16 36 -39 87 -50 115 l-19 49 73 -75 c41 -41 107 -96 148
-123z m346 -25 c66 -27 149 -66 187 -88 l67 -39 -79 -66 -79 -66 -12 27 c-23
50 -103 163 -157 222 -31 32 -53 59 -50 59 2 0 58 -22 123 -49z m1160 -66
c234 -40 423 -136 594 -301 149 -144 253 -321 307 -521 24 -89 27 -115 27
-278 0 -163 -3 -189 -27 -278 -49 -183 -141 -347 -271 -485 -255 -270 -622
-396 -985 -337 -355 58 -657 279 -816 600 -161 323 -163 665 -6 990 211 439
700 692 1177 610z m-1043 -2094 c-51 -26 -197 -81 -214 -81 -6 0 12 26 39 58
27 31 64 79 82 106 l32 48 54 -53 54 -54 -47 -24z"/>
<path d="M3453 2216 c-389 -74 -681 -351 -775 -732 -30 -124 -30 -313 0 -437
87 -355 350 -622 708 -718 116 -32 334 -32 459 -1 345 86 618 357 705 698 11
41 16 82 13 92 -13 36 -36 52 -74 52 -47 0 -61 -18 -84 -110 -24 -98 -96 -236
-162 -314 -308 -366 -845 -394 -1191 -62 -107 102 -173 212 -218 363 -23 75
-26 107 -27 218 0 112 4 142 27 218 48 160 113 264 235 379 299 282 749 290
1080 19 105 -85 220 -268 255 -404 18 -73 39 -97 83 -97 42 0 73 30 73 71 0
43 -55 202 -92 269 -136 241 -357 413 -618 480 -108 28 -295 35 -397 16z"/>
<path d="M3501 1920 c-294 -62 -499 -279 -541 -572 -44 -301 153 -613 447
-711 312 -103 645 32 798 325 193 366 -3 821 -405 942 -66 20 -237 29 -299 16z
m283 -169 c203 -71 346 -272 346 -486 0 -139 -51 -258 -154 -360 -82 -82 -153
-120 -267 -143 -247 -51 -506 106 -581 352 -86 281 82 578 368 651 78 19 210
13 288 -14z"/>
<path d="M3530 1617 c-72 -21 -118 -47 -165 -92 -180 -176 -130 -477 99 -586
184 -88 396 -9 484 179 23 49 27 70 27 147 0 82 -3 97 -32 156 -60 121 -170
196 -300 205 -40 2 -87 -1 -113 -9z m154 -149 c56 -17 121 -84 136 -140 27
-97 -13 -199 -95 -245 -87 -49 -178 -38 -251 29 -90 82 -94 207 -10 296 62 65
135 85 220 60z"/>
</g>
</svg>
