<?xml version="1.0" standalone="no"?>
<!DOCTYPE svg PUBLIC "-//W3C//DTD SVG 20010904//EN"
 "http://www.w3.org/TR/2001/REC-SVG-20010904/DTD/svg10.dtd">
<svg version="1.0" xmlns="http://www.w3.org/2000/svg"
 width="403.000000pt" height="423.000000pt" viewBox="0 0 403.000000 423.000000"
 preserveAspectRatio="xMidYMid meet">

<g transform="translate(0.000000,423.000000) scale(0.100000,-0.100000)"
fill="#000000" stroke="none">
<path d="M1310 3855 l-124 -125 27 -56 c16 -31 27 -57 25 -58 -2 -1 -30 -10
-63 -20 -155 -47 -350 -170 -485 -305 -182 -183 -297 -393 -335 -610 -34 -193
1 -404 91 -555 l35 -60 -240 -240 -241 -241 125 -125 124 -124 61 29 c33 16
61 27 63 24 1 -2 13 -38 27 -79 58 -177 165 -344 320 -500 172 -173 365 -288
587 -347 89 -24 115 -27 278 -27 167 0 186 2 268 27 49 15 107 37 129 48 l41
21 251 -251 251 -251 123 123 124 124 -31 60 -30 61 82 27 c183 62 342 162
493 310 213 209 331 428 379 699 44 256 -13 529 -151 717 l-34 46 235 232
c129 128 235 236 235 239 0 4 -55 62 -122 129 l-121 122 -48 -25 c-27 -13 -52
-24 -57 -24 -5 0 -14 19 -21 43 -7 23 -33 84 -57 136 -128 271 -351 497 -617
621 -145 68 -219 84 -397 84 -168 1 -227 -10 -344 -61 -68 -30 -190 -110 -226
-148 -13 -14 -28 -25 -34 -25 -6 0 -114 104 -241 230 l-230 230 -125 -125z
m361 -197 l226 -232 69 63 c117 108 246 172 402 202 89 17 278 6 371 -21 357
-102 694 -445 792 -806 12 -43 22 -80 24 -82 1 -2 33 12 69 30 l66 32 91 -90
90 -90 -235 -232 -235 -232 50 -66 c103 -137 157 -288 166 -470 17 -320 -114
-634 -368 -884 -169 -166 -357 -272 -586 -330 l-43 -11 38 -74 37 -75 -88 -88
-87 -87 -245 245 -245 245 -48 -27 c-87 -49 -213 -80 -352 -85 -70 -3 -156 -1
-196 6 -170 26 -354 101 -493 199 -93 66 -243 213 -313 307 -79 106 -159 268
-189 383 -13 50 -28 92 -34 92 -5 -1 -39 -16 -75 -35 l-65 -34 -88 87 -87 87
236 236 237 237 -32 46 c-44 63 -87 158 -108 236 -27 100 -24 301 5 404 26 89
77 206 124 281 171 270 478 494 741 541 20 3 37 9 37 13 -1 3 -16 35 -35 71
l-34 65 87 88 c48 48 89 87 92 87 3 1 107 -104 231 -232z"/>
<path d="M1405 3730 l-29 -31 51 -103 51 -103 -95 -12 c-126 -15 -234 -52
-346 -118 -240 -142 -412 -346 -496 -588 -82 -239 -40 -496 110 -676 l43 -51
-232 -225 c-128 -124 -232 -231 -232 -237 0 -7 11 -23 25 -36 l26 -24 104 52
c58 29 107 52 109 52 2 0 6 -31 10 -69 8 -88 48 -226 91 -317 116 -241 360
-478 593 -574 143 -60 252 -82 397 -82 177 0 302 35 443 123 21 13 31 5 260
-224 l238 -238 28 29 27 30 -51 102 c-28 56 -49 104 -47 107 3 2 38 9 77 14
237 33 438 138 627 325 244 243 358 533 331 841 -14 167 -92 344 -199 454
l-51 52 233 233 233 233 -28 30 -29 30 -98 -50 c-54 -27 -103 -49 -109 -49 -6
0 -10 27 -10 63 -2 234 -183 540 -430 724 -170 127 -404 206 -565 189 -213
-23 -333 -83 -484 -241 l-73 -78 -237 237 -237 237 -29 -31z m81 -401 c93 -13
200 -50 275 -95 83 -50 83 -50 50 -130 -16 -38 -38 -109 -47 -159 -25 -124
-23 -371 4 -515 11 -58 17 -108 13 -112 -14 -16 -302 -50 -421 -51 -107 0
-136 4 -201 25 -174 57 -315 201 -369 377 -29 92 -27 227 3 302 74 178 280
325 502 358 85 12 104 12 191 0z m1464 -18 c148 -56 292 -237 341 -429 26
-102 25 -239 -2 -344 -20 -82 -71 -195 -105 -235 l-19 -22 -75 44 c-170 100
-425 136 -707 102 -91 -12 -103 -11 -108 2 -2 9 -12 70 -21 136 -21 151 -15
305 15 389 66 188 233 335 426 376 64 14 194 5 255 -19z m-2096 -1396 c134
-94 268 -134 483 -142 150 -6 264 4 437 39 55 10 104 20 110 21 14 3 34 -110
42 -238 8 -126 -7 -260 -37 -340 -48 -130 -183 -271 -331 -345 -99 -49 -168
-63 -287 -58 -161 8 -273 60 -401 188 -137 137 -199 281 -208 481 -4 96 -1
130 17 199 21 85 87 240 102 240 4 0 37 -20 73 -45z m1919 20 c110 -23 191
-69 282 -160 167 -167 234 -359 195 -557 -45 -233 -253 -442 -507 -509 -106
-29 -268 -29 -374 -1 -72 19 -219 85 -219 98 0 3 21 29 46 58 99 109 161 238
197 406 33 157 24 473 -19 644 -5 23 -3 25 33 29 98 10 302 6 366 -8z"/>
</g>
</svg>
