<?xml version="1.0" encoding="UTF-8"?>
<svg version="1.1" xmlns="http://www.w3.org/2000/svg" width="1440" height="688">
<path d="M0 0 C1.01795151 -0.00570007 2.03590302 -0.01140015 3.08470154 -0.01727295 C5.23703998 -0.0266784 7.38939253 -0.0332391 9.54174805 -0.03710938 C12.74750976 -0.0466924 15.95259478 -0.07770734 19.15820312 -0.109375 C48.703823 -0.26140224 77.2272486 4.9510434 105.24609375 14.203125 C105.91060547 14.4201709 106.57511719 14.6372168 107.25976562 14.86083984 C137.48503823 24.92304037 165.88764068 41.7957281 190.24609375 62.203125 C191.23996094 63.01265625 192.23382813 63.8221875 193.2578125 64.65625 C207.85058373 76.70296554 221.72540843 90.17137368 233.24609375 105.203125 C234.16583079 106.33743339 235.08928772 107.46873154 236.015625 108.59765625 C277.39646739 159.15779105 307.10612438 217.64702345 301.94580078 284.06835938 C301.10661114 291.85518398 299.78544426 299.52684892 298.24609375 307.203125 C298.05305664 308.1926416 297.86001953 309.1821582 297.66113281 310.20166016 C289.84797775 349.06857849 273.78849188 386.38296918 258.62432861 422.82424927 C244.83218852 456.00631653 231.10300324 489.8038714 224.24609375 525.203125 C223.99988281 526.46511719 223.75367188 527.72710938 223.5 529.02734375 C218.27542585 561.20351424 224.37862713 590.7549143 243.24609375 617.203125 C250.38651367 626.46766984 259.50799469 634.8431491 271.51171875 636.51953125 C296.08341109 637.74811587 319.37950422 616.91901832 336.43359375 601.578125 C337.16964844 600.90523437 337.90570312 600.23234375 338.6640625 599.5390625 C340.06233452 598.27405998 341.46624172 597.01469592 342.89874268 595.78858948 C348.58833084 590.90980857 353.8957204 585.69852047 359.1875 580.39453125 C360.57726295 579.00620338 360.57726295 579.00620338 361.99510193 577.58982849 C363.94391736 575.64247645 365.89094112 573.69335587 367.83666992 571.74291992 C370.30973236 569.26416105 372.78725908 566.78992069 375.26616001 564.3170023 C377.65905576 561.92862355 380.04809693 559.5364042 382.4375 557.14453125 C383.31684708 556.2672084 384.19619415 555.38988556 385.10218811 554.48597717 C389.48444088 550.08717213 393.73147422 545.63459628 397.76060486 540.90879822 C400.56366281 537.69026128 403.65056832 534.75598932 406.70703125 531.78125 C409.44181878 529.0898718 412.02752006 526.33398088 414.52734375 523.421875 C419.44806817 517.73330128 424.86153794 512.5421112 430.21875 507.26953125 C434.55132392 502.97868356 438.70916884 498.62423699 442.68212891 493.99853516 C448.2975307 487.55213103 454.58664543 481.68294236 461.0859375 476.14453125 C463.91495506 473.60199648 466.57334709 470.9081532 469.24609375 468.203125 C473.75317748 463.65298438 478.36623417 459.35390539 483.24609375 455.203125 C484.35801718 454.22928582 485.46856129 453.25387068 486.578125 452.27734375 C494.91690931 444.95473573 503.41188855 437.9193295 512.24609375 431.203125 C512.9628125 430.6551123 513.67953125 430.10709961 514.41796875 429.54248047 C536.15459177 412.98586476 559.91977441 396.36127094 588.24609375 395.203125 C589.70595703 395.12578125 589.70595703 395.12578125 591.1953125 395.046875 C643.58713113 393.58647587 688.63995585 427.93044796 729.30078125 456.7890625 C743.06231302 466.53318613 756.91339365 476.21586428 771.99609375 483.828125 C772.62741211 484.14700684 773.25873047 484.46588867 773.90917969 484.79443359 C779.07080211 487.30328653 784.06909346 489.05035305 789.80859375 489.453125 C794.43387717 487.77120376 795.57501595 485.51437415 797.8359375 481.2578125 C805.38871415 464.89695006 807.83952599 448.25263846 807.68359375 430.390625 C807.68055237 429.63988708 807.67751099 428.88914917 807.67437744 428.11566162 C807.58628539 413.2382845 805.99318535 398.83293529 803.24609375 384.203125 C803.04773926 383.13223633 802.84938477 382.06134766 802.64501953 380.95800781 C799.6840608 365.29342901 796.00938656 349.78435732 792.41821289 334.25558472 C768.66185235 231.50182502 768.66185235 231.50182502 794.24609375 190.203125 C796.41578059 187.04402078 798.75835928 184.11597865 801.24609375 181.203125 C801.87773438 180.41550781 802.509375 179.62789062 803.16015625 178.81640625 C822.28117685 156.00724871 853.9415783 144.42262421 882.85791016 141.39941406 C905.40495638 139.54623218 926.95648359 142.83310973 948.24609375 150.203125 C948.9023877 150.42838867 949.55868164 150.65365234 950.23486328 150.88574219 C972.27339975 158.63135863 992.4431023 171.21256932 1010.24609375 186.203125 C1010.76880859 186.63705566 1011.29152344 187.07098633 1011.83007812 187.51806641 C1023.13204182 196.90952142 1033.87934191 206.84303548 1043.24609375 218.203125 C1043.8793457 218.96568604 1043.8793457 218.96568604 1044.52539062 219.74365234 C1058.80957335 237.0110543 1070.68808962 255.46235414 1081.24609375 275.203125 C1081.93916626 276.47168335 1081.93916626 276.47168335 1082.64624023 277.76586914 C1091.40020369 294.42185457 1097.21843232 312.49869061 1102.64956665 330.453125 C1104.23148399 335.67381867 1105.8486308 340.88359015 1107.46484375 346.09375 C1107.94598381 347.64636536 1107.94598381 347.64636536 1108.43684387 349.23034668 C1123.6386727 398.12383447 1142.04994325 446.48287556 1175.24609375 486.203125 C1176.41978516 487.63591797 1176.41978516 487.63591797 1177.6171875 489.09765625 C1188.70460281 502.52502332 1200.67368826 515.1395131 1213.64306641 526.75732422 C1217.0221972 529.8050264 1220.34016513 532.92009645 1223.6706543 536.02075195 C1224.16734619 536.48054443 1224.66403809 536.94033691 1225.17578125 537.4140625 C1225.63816193 537.85689072 1226.1005426 538.29971893 1226.57693481 538.75596619 C1228.19186387 540.24581242 1228.19186387 540.24581242 1230.05314636 541.25982666 C1232.33195918 542.71788934 1233.69851733 543.96618395 1235.24609375 546.203125 C1236.24072321 551.20688769 1236.06200702 556.15512236 1235.9296875 561.2265625 C1235.91661891 562.69769936 1235.90666069 564.16886685 1235.89967346 565.64004517 C1235.8730452 569.49763258 1235.80437422 573.35335189 1235.72674561 577.21020508 C1235.65491951 581.15159841 1235.62312105 585.093296 1235.58789062 589.03515625 C1235.5129928 596.75866085 1235.39364912 604.48063041 1235.24609375 612.203125 C1230.94046239 609.37597614 1226.94989814 606.3837288 1223.05859375 603.015625 C1221.9082031 602.03048927 1220.75715161 601.04612475 1219.60546875 600.0625 C1218.7537207 599.33450195 1218.7537207 599.33450195 1217.88476562 598.59179688 C1215.55323874 596.61597374 1213.18258254 594.69010112 1210.80859375 592.765625 C1200.17023956 584.08818661 1189.88508398 575.07012241 1179.85498047 565.69873047 C1178.24520356 564.20229749 1176.62468399 562.7185055 1175 561.23828125 C1165.32976076 552.41630861 1155.62298784 543.45536347 1147.15625 533.44921875 C1145.60443845 531.62449147 1144.02801869 529.83432005 1142.4296875 528.05078125 C1098.58920817 478.83230254 1074.8135912 417.53542299 1055.921875 355.328125 C1048.01814796 328.73050414 1048.01814796 328.73050414 1037.24609375 303.203125 C1036.90723145 302.49687988 1036.56836914 301.79063477 1036.21923828 301.06298828 C1023.45026464 274.6125398 1004.27442826 247.74699437 981.24609375 229.203125 C980.24320313 228.37425781 979.2403125 227.54539063 978.20703125 226.69140625 C952.56999413 205.7842859 922.04409907 190.81900163 888.24609375 193.203125 C872.28784065 194.88799729 853.71030808 200.47836034 842.24609375 212.203125 C830.33303274 226.95013004 829.8682357 245.06191137 831.51123047 263.11669922 C834.18435549 287.72150867 840.47142675 311.958807 846.05879211 336.02651978 C853.25427158 367.03902708 859.46965118 397.67583691 859.49609375 429.640625 C859.49710083 430.48561554 859.49810791 431.33060608 859.49914551 432.20120239 C859.48902658 444.75448254 859.06914128 456.91970473 856.24609375 469.203125 C856.10155762 469.86135254 855.95702148 470.51958008 855.80810547 471.19775391 C850.78519861 493.55330504 841.37457795 517.33856953 822.24609375 531.203125 C805.6290954 541.33196855 789.01734584 543.08954346 770.33837891 538.7421875 C738.89455676 530.6409087 711.61493768 507.90591319 685.66992188 489.36181641 C640.34073914 456.02687248 640.34073914 456.02687248 586.4453125 447.6640625 C558.91533172 454.43699554 534.30147627 479.19333528 513.83569336 497.84887695 C512.2140981 499.32309615 510.5855826 500.78977842 508.94702148 502.24511719 C498.76584654 511.39054281 489.16232487 521.13466562 479.49926758 530.81958008 C476.93665552 533.3879191 474.36953543 535.95169808 471.80108166 538.51419353 C469.79593303 540.51570417 467.79320204 542.51962039 465.79116249 544.52424049 C464.39289415 545.92348329 462.99264223 547.32074301 461.59233093 548.71794128 C457.13902825 553.18753499 452.81363842 557.70414811 448.72114563 562.50788879 C445.92286058 565.72388018 442.83797853 568.65380399 439.78515625 571.625 C437.04007193 574.32651156 434.44449481 577.09395441 431.93359375 580.015625 C427.21995177 585.46480233 422.0522996 590.44400314 416.91796875 595.4921875 C412.69903709 599.66806884 408.6665759 603.92046702 404.79638672 608.42138672 C399.43895285 614.57863907 393.43710881 620.12831333 387.2421875 625.42578125 C384.98476749 627.43581277 382.86873662 629.55145453 380.74609375 631.703125 C376.73263982 635.7505337 372.61743056 639.54646707 368.24609375 643.203125 C367.43640137 643.8835083 367.43640137 643.8835083 366.61035156 644.57763672 C337.98561141 668.53879561 305.31508733 691.02413047 266.24609375 688.203125 C240.63311805 684.90893371 219.09180827 670.31425479 203.37109375 650.203125 C176.03102192 614.24316109 165.70186823 572.45263339 171.37109375 527.640625 C171.92335757 523.81384726 172.56391885 520.00874114 173.24609375 516.203125 C173.41818359 515.2224707 173.59027344 514.24181641 173.76757812 513.23144531 C180.4941429 476.35334895 194.94585251 441.37046215 209.14862061 406.87084961 C212.17707261 399.50932465 215.18336811 392.13869289 218.18359375 384.765625 C218.49158905 384.00878418 218.79958435 383.25194336 219.11691284 382.47216797 C242.27414223 325.8936937 242.27414223 325.8936937 250.48632812 265.82714844 C250.49594302 263.735909 250.52698667 261.64569343 250.55859375 259.5546875 C250.92858827 212.73673481 217.11248492 163.36486424 186.24609375 130.203125 C185.15869009 128.93577274 184.07523781 127.66501762 182.99609375 126.390625 C174.58876856 116.77669296 165.38632089 107.96779692 155.24609375 100.203125 C154.70291504 99.78353516 154.15973633 99.36394531 153.60009766 98.93164062 C123.46470178 75.77007409 89.64952447 60.95338359 52.24609375 54.203125 C51.55209473 54.07711914 50.8580957 53.95111328 50.14306641 53.82128906 C16.90627648 48.09051485 -20.29866243 48.16311835 -48.75390625 68.203125 C-67.54698551 81.75107701 -83.46540714 98.11964828 -97.47167969 116.52685547 C-98.68942512 118.11882807 -99.92815378 119.69468537 -101.16796875 121.26953125 C-112.93063198 136.26980049 -123.57174038 152.09898729 -133.75390625 168.203125 C-134.29031738 169.04697754 -134.82672852 169.89083008 -135.37939453 170.76025391 C-144.02805138 184.38182714 -152.35053675 198.17727817 -160.56005859 212.06567383 C-167.80783726 224.32418042 -175.18623051 236.49872937 -182.59960938 248.65771484 C-184.5066355 251.79136036 -186.40064348 254.93271384 -188.29129028 258.07626343 C-189.85737467 260.68006887 -191.42653644 263.28201393 -192.99578857 265.88391113 C-193.74408614 267.12657281 -194.49090179 268.37012821 -195.23614502 269.61462402 C-196.26677677 271.33528921 -197.30318298 273.05249167 -198.33984375 274.76953125 C-199.2222876 276.23821655 -199.2222876 276.23821655 -200.12255859 277.73657227 C-201.53799339 279.8766707 -202.92188708 281.43951012 -204.75390625 283.203125 C-205.05729395 270.65849589 -205.28718659 258.11476191 -205.42746449 245.56718922 C-205.49484934 239.73836525 -205.58598399 233.9120799 -205.73461914 228.0847168 C-205.877581 222.44341942 -205.95394742 216.80453694 -205.98731041 211.16156578 C-206.01103237 209.02660848 -206.05734618 206.89175911 -206.12839699 204.75785255 C-206.64422592 188.59879683 -202.9491156 178.65966553 -193.45585251 165.61412048 C-190.60327057 161.57312205 -188.10028915 157.32326706 -185.56640625 153.078125 C-166.94167994 122.82894758 -146.83267392 92.80414565 -122.8515625 66.51953125 C-121.04799012 64.52787683 -119.30284529 62.50290643 -117.56640625 60.453125 C-108.84630317 50.47862194 -99.27972698 41.24724816 -88.75390625 33.203125 C-88.21217773 32.77966797 -87.67044922 32.35621094 -87.11230469 31.91992188 C-61.54242916 11.98603125 -32.61248197 0.14588234 0 0 Z " fill="#DC742C" transform="translate(204.75390625,-0.203125)"/>
</svg>
