<?xml version="1.0" standalone="no"?>
<!DOCTYPE svg PUBLIC "-//W3C//DTD SVG 20010904//EN"
 "http://www.w3.org/TR/2001/REC-SVG-20010904/DTD/svg10.dtd">
<svg version="1.0" xmlns="http://www.w3.org/2000/svg"
 width="1440.000000pt" height="1063.000000pt" viewBox="0 0 1440.000000 1063.000000"
 preserveAspectRatio="xMidYMid meet">

<g transform="translate(0.000000,1063.000000) scale(0.100000,-0.100000)"
fill="#000000" stroke="none">
<path d="M0 10159 l0 -366 36 -47 c20 -26 65 -93 100 -148 375 -592 543 -1394
520 -2488 -7 -364 -15 -503 -66 -1225 -55 -765 -63 -957 -57 -1275 8 -377 38
-599 112 -826 168 -511 547 -784 1091 -784 389 0 712 154 1050 502 125 129
205 225 424 508 274 354 387 484 522 597 107 89 219 154 325 189 80 26 100 29
228 29 161 0 229 -14 341 -71 76 -38 162 -115 216 -195 105 -152 176 -411 209
-759 19 -197 15 -749 -11 -1270 -17 -368 -21 -540 -17 -825 5 -381 18 -513 68
-713 75 -302 224 -513 440 -627 253 -133 650 -106 946 65 296 170 501 457 778
1085 225 510 328 676 465 746 55 29 151 31 230 4 204 -67 275 -162 320 -425 6
-36 15 -245 20 -465 9 -410 18 -510 59 -672 86 -337 309 -570 638 -669 126
-38 277 -39 380 -2 97 35 151 68 227 138 261 244 387 695 448 1595 16 246 16
1341 0 1760 -13 313 -49 1144 -78 1770 -21 466 -30 1439 -15 1665 18 265 54
504 81 533 10 12 138 -130 215 -238 177 -248 284 -520 331 -841 14 -88 18
-181 18 -359 0 -365 -29 -580 -184 -1360 -141 -716 -172 -943 -173 -1285 -1
-240 8 -342 50 -529 79 -360 241 -654 495 -897 149 -142 289 -225 464 -276 69
-20 101 -23 244 -22 150 0 173 3 255 28 579 176 1019 830 1169 1739 42 251 50
365 50 682 0 252 -5 360 -32 670 -41 479 -52 673 -52 897 0 397 43 643 148
858 38 79 61 110 132 181 128 128 269 195 499 234 199 35 285 21 409 -64 67
-46 198 -179 267 -271 26 -36 52 -69 57 -74 4 -6 8 154 8 356 l0 365 -57 40
c-78 55 -183 106 -273 135 -67 20 -94 23 -245 23 -189 0 -317 -20 -495 -77
-518 -165 -825 -558 -914 -1173 -51 -355 -48 -683 15 -1425 49 -566 49 -904 3
-1215 -101 -682 -388 -1201 -760 -1377 -66 -31 -75 -33 -185 -33 l-116 0 -89
44 c-154 76 -307 252 -414 473 -101 209 -134 382 -134 698 0 327 23 491 174
1255 99 496 121 623 150 860 87 697 17 1241 -222 1719 -141 282 -374 576 -557
704 -110 77 -166 96 -286 96 -94 1 -105 -1 -167 -32 -219 -108 -315 -340 -370
-897 -20 -196 -16 -1298 5 -1770 81 -1767 87 -1925 94 -2550 8 -715 -12 -1178
-67 -1551 -62 -421 -172 -702 -287 -730 -61 -16 -232 67 -286 138 -42 54 -77
141 -98 241 -17 77 -21 156 -29 492 -9 392 -16 498 -46 640 -79 381 -298 623
-661 731 -128 38 -316 45 -433 15 -271 -68 -473 -264 -670 -651 -37 -74 -112
-234 -165 -355 -206 -465 -321 -663 -465 -798 -135 -127 -282 -183 -460 -175
-99 5 -147 26 -203 87 -163 181 -202 628 -147 1686 53 999 19 1535 -121 1942
-165 477 -477 748 -942 817 -203 31 -394 14 -585 -49 -220 -73 -399 -192 -618
-410 -148 -148 -235 -251 -531 -635 -331 -427 -536 -611 -768 -687 -105 -34
-300 -43 -415 -19 -278 58 -428 253 -495 646 -30 176 -38 348 -32 690 6 321
12 444 57 1040 79 1055 87 1631 30 2186 -77 745 -276 1356 -602 1844 -128 192
-204 286 -375 460 l-142 145 -1 -366z"/>
</g>
</svg>
